<svg id="visual" viewBox="0 0 900 600" width="900" height="600" xmlns="http://www.w3.org/2000/svg" xmlns:xlink="http://www.w3.org/1999/xlink" version="1.1"><rect x="0" y="0" width="900" height="600" fill="#ECE8E8"></rect><defs><linearGradient id="grad1_0" x1="33.3%" y1="0%" x2="100%" y2="100%"><stop offset="20%" stop-color="#ffffff" stop-opacity="1"></stop><stop offset="80%" stop-color="#ffffff" stop-opacity="1"></stop></linearGradient></defs><defs><linearGradient id="grad1_1" x1="33.3%" y1="0%" x2="100%" y2="100%"><stop offset="20%" stop-color="#ffffff" stop-opacity="1"></stop><stop offset="80%" stop-color="#ece8e8" stop-opacity="1"></stop></linearGradient></defs><defs><linearGradient id="grad2_0" x1="0%" y1="0%" x2="66.7%" y2="100%"><stop offset="20%" stop-color="#ffffff" stop-opacity="1"></stop><stop offset="80%" stop-color="#ffffff" stop-opacity="1"></stop></linearGradient></defs><defs><linearGradient id="grad2_1" x1="0%" y1="0%" x2="66.7%" y2="100%"><stop offset="20%" stop-color="#ece8e8" stop-opacity="1"></stop><stop offset="80%" stop-color="#ffffff" stop-opacity="1"></stop></linearGradient></defs><g transform="translate(900, 0)"><path d="M0 459.7C-45.7 416 -91.4 372.3 -146.6 353.8C-201.7 335.4 -266.4 342.1 -316.8 316.8C-367.2 291.5 -403.3 234.1 -424.7 175.9C-446.2 117.8 -452.9 58.9 -459.7 0L0 0Z" fill="#f5f3f3"></path><path d="M0 229.9C-22.8 208 -45.7 186.2 -73.3 176.9C-100.9 167.7 -133.2 171.1 -158.4 158.4C-183.6 145.7 -201.6 117 -212.4 88C-223.1 58.9 -226.5 29.4 -229.9 0L0 0Z" fill="#ffffff"></path></g><g transform="translate(0, 600)"><path d="M0 -459.7C34.8 -398.9 69.6 -338.1 135.5 -327.1C201.3 -316 298.2 -354.6 325.1 -325.1C352 -295.6 308.9 -197.9 319.7 -132.4C330.4 -66.9 395.1 -33.4 459.7 0L0 0Z" fill="#f5f3f3"></path><path d="M0 -229.9C17.4 -199.5 34.8 -169.1 67.7 -163.5C100.7 -158 149.1 -177.3 162.5 -162.5C176 -147.8 154.4 -99 159.8 -66.2C165.2 -33.4 197.5 -16.7 229.9 0L0 0Z" fill="#ffffff"></path></g></svg>