<svg id="visual" viewBox="0 0 960 540" width="960" height="540" xmlns="http://www.w3.org/2000/svg" xmlns:xlink="http://www.w3.org/1999/xlink" version="1.1"><rect x="0" y="0" width="960" height="540" fill="#ECE8E8"></rect><defs><linearGradient id="grad1_0" x1="43.8%" y1="0%" x2="100%" y2="100%"><stop offset="14.444444444444446%" stop-color="#ffffff" stop-opacity="1"></stop><stop offset="85.55555555555554%" stop-color="#ffffff" stop-opacity="1"></stop></linearGradient></defs><defs><linearGradient id="grad1_1" x1="43.8%" y1="0%" x2="100%" y2="100%"><stop offset="14.444444444444446%" stop-color="#ffffff" stop-opacity="1"></stop><stop offset="85.55555555555554%" stop-color="#ece8e8" stop-opacity="1"></stop></linearGradient></defs><defs><linearGradient id="grad2_0" x1="0%" y1="0%" x2="56.3%" y2="100%"><stop offset="14.444444444444446%" stop-color="#ffffff" stop-opacity="1"></stop><stop offset="85.55555555555554%" stop-color="#ffffff" stop-opacity="1"></stop></linearGradient></defs><defs><linearGradient id="grad2_1" x1="0%" y1="0%" x2="56.3%" y2="100%"><stop offset="14.444444444444446%" stop-color="#ece8e8" stop-opacity="1"></stop><stop offset="85.55555555555554%" stop-color="#ffffff" stop-opacity="1"></stop></linearGradient></defs><g transform="translate(960, 0)"><path d="M0 459C-48.8 425.7 -97.6 392.3 -155.4 375.1C-213.2 357.9 -280 356.7 -324.6 324.6C-369.1 292.4 -391.5 229.2 -410.2 169.9C-428.9 110.6 -444 55.3 -459 0L0 0Z" fill="#f5f3f3"></path><path d="M0 229.5C-24.4 212.8 -48.8 196.2 -77.7 187.5C-106.6 178.9 -140 178.4 -162.3 162.3C-184.6 146.2 -195.8 114.6 -205.1 85C-214.5 55.3 -222 27.7 -229.5 0L0 0Z" fill="#ffffff"></path></g><g transform="translate(0, 540)"><path d="M0 -459C58 -451.8 115.9 -444.7 175.7 -424.1C235.4 -403.4 296.9 -369.3 316.8 -316.8C336.7 -264.2 314.9 -193.3 331.7 -137.4C348.4 -81.5 403.7 -40.8 459 0L0 0Z" fill="#f5f3f3"></path><path d="M0 -229.5C29 -225.9 58 -222.3 87.8 -212C117.7 -201.7 148.5 -184.7 158.4 -158.4C168.3 -132.1 157.5 -96.6 165.8 -68.7C174.2 -40.8 201.9 -20.4 229.5 0L0 0Z" fill="#ffffff"></path></g></svg>